<svg xmlns="http://www.w3.org/2000/svg" viewBox="0 0 400 240" width="400" height="240" fill="none">
  <g fill="#B8901F">
    <!-- Кольцо головки ключа: центр (120,120), внешний r=100, толщина 22 -->
    <path fill-rule="evenodd" d="
      M 120 20
      A 100 100 0 1 0 120.01 20
      Z
      M 120 42
      A 78 78 0 1 1 119.99 42
      Z
    "/>

    <!-- Стержень ключа: от кольца вправо, по центру кольца -->
    <path d="M 196 100 L 344 100 L 368 120 L 344 140 L 196 140 Z"/>

    <!-- Зубцы снизу -->
    <rect x="252" y="140" width="20" height="34"/>
    <rect x="296" y="140" width="20" height="48"/>

    <!-- Дом внутри кольца -->
    <path d="M 120 66 L 172 112 L 68 112 Z"/>
    <rect x="140" y="76" width="13" height="22"/>
    <rect x="82" y="112" width="76" height="62"/>

    <!-- Дверной проём -->
    <path fill="#FFFFFF" d="
      M 108 174
      L 108 146
      A 12 12 0 0 1 132 146
      L 132 174
      Z
    "/>
  </g>
</svg>